<svg width="186" height="86" viewBox="0 0 186 86" fill="none" xmlns="http://www.w3.org/2000/svg">
<path d="M39.544 85.28C26.488 85.28 16.7173 81.8667 10.232 75.04C3.74667 68.128 0.503998 57.4613 0.503998 43.04C0.503998 28.0213 3.74667 17.1413 10.232 10.4C16.7173 3.65866 26.488 0.287994 39.544 0.287994C52.6853 0.287994 62.456 3.65866 68.856 10.4C75.3413 17.1413 78.584 28.0213 78.584 43.04C78.584 57.4613 75.3413 68.128 68.856 75.04C62.456 81.8667 52.6853 85.28 39.544 85.28ZM39.544 73.504C48.1627 73.504 54.4773 71.1573 58.488 66.464C62.584 61.6853 64.632 53.8773 64.632 43.04C64.632 31.6053 62.584 23.6267 58.488 19.104C54.4773 14.496 48.1627 12.192 39.544 12.192C31.0107 12.192 24.696 14.496 20.6 19.104C16.5893 23.6267 14.584 31.6053 14.584 43.04C14.584 53.8773 16.5893 61.6853 20.6 66.464C24.696 71.1573 31.0107 73.504 39.544 73.504Z" fill="white"/>
<path d="M146.544 85.28C133.488 85.28 123.717 81.8667 117.232 75.04C110.747 68.128 107.504 57.4613 107.504 43.04C107.504 28.0213 110.747 17.1413 117.232 10.4C123.717 3.65866 133.488 0.287994 146.544 0.287994C159.685 0.287994 169.456 3.65866 175.856 10.4C182.341 17.1413 185.584 28.0213 185.584 43.04C185.584 57.4613 182.341 68.128 175.856 75.04C169.456 81.8667 159.685 85.28 146.544 85.28ZM146.544 73.504C155.163 73.504 161.477 71.1573 165.488 66.464C169.584 61.6853 171.632 53.8773 171.632 43.04C171.632 31.6053 169.584 23.6267 165.488 19.104C161.477 14.496 155.163 12.192 146.544 12.192C138.011 12.192 131.696 14.496 127.6 19.104C123.589 23.6267 121.584 31.6053 121.584 43.04C121.584 53.8773 123.589 61.6853 127.6 66.464C131.696 71.1573 138.011 73.504 146.544 73.504Z" fill="white"/>
<path d="M85.44 84L61.504 23.328H75.968L92.992 70.432L110.016 23.328H124.352L100.544 84H85.44Z" fill="white"/>
</svg>
